<svg xmlns="http://www.w3.org/2000/svg" xmlns:xlink="http://www.w3.org/1999/xlink" fill="none" version="1.1" width="80.071044921875" height="28" viewBox="0 0 80.071044921875 28"><g><g><path d="M16.845070111816405,15.927273523162842L23.999977111816406,23.999999523162842L-0.00002288818359375,23.999999523162842L10.640485111816407,11.999999523162842L-0.00002288818359375,-3.7279995820312497e-7L23.999977111816406,-4.76837158203125e-7L18.973171111816406,5.614425623162842L16.351005111816406,5.614435623162842L19.363361111816406,2.1818177231628417L4.6706056118164065,2.1818177231628417L13.376475111816406,11.999999523162842L4.670606611816407,21.818181523162842L19.363361111816406,21.818181523162842L16.845070111816405,18.981818523162843L16.845070111816405,15.927273523162842Z" fill-rule="evenodd" fill="#373434" fill-opacity="1"/><path d="" fill="#000000" fill-opacity="1"/></g><g><path d="M27.671044821875,24L27.671044821875,10L29.031044721875,10L29.031044721875,24L27.671044821875,24ZM41.211043921875,17.360001L41.211043921875,16.880000000000003L46.271043921875,16.880000000000003L46.271043921875,22.32Q45.351043921875004,23.24,44.021043921875,23.76Q42.691043921875,24.280001,41.051044921875004,24.280001Q39.371043921875,24.280001,37.951043921875,23.73Q36.531044921875,23.18,35.471044921875,22.190001Q34.411045121875,21.200001,33.821044921875,19.880000000000003Q33.231044721875,18.559998999999998,33.231044721875,17Q33.231044721875,15.440001,33.821044921875,14.1199999Q34.411045121875,12.8000002,35.471044921875,11.8100004Q36.531044921875,10.8200006,37.951043921875,10.2700005Q39.371043921875,9.720000299999999,41.051044921875004,9.720000299999999Q41.771043921875,9.720000299999999,42.621043921875,9.8200006Q43.471044921875,9.9200001,44.251044921875,10.0900002Q45.031043921874996,10.2600002,45.571044921875,10.5L45.471044921875,11.6199999L45.351043921875004,11.6199999Q44.551044921875004,10.9200001,43.431045921875,10.5600004Q42.311044921874995,10.2000008,41.051044921875004,10.2000008Q39.171044921875,10.2000008,37.751044921875,11.0500002Q36.331044921875,11.9000006,35.541043921875,13.4300003Q34.751045221875,14.96,34.751045221875,17Q34.751045221875,19.04,35.541043921875,20.57Q36.331044921875,22.1,37.751044921875,22.950001Q39.171044921875,23.799999,41.051044921875004,23.799999Q42.211043921875,23.799999,43.201043921875,23.48Q44.191043921875,23.16,44.911044921875,22.559999L44.911044921875,17.360001L41.211043921875,17.360001ZM64.05104492187499,10L64.05104492187499,24L62.691043921875,24L62.691043921875,11.1599998L62.571044921875,11.1599998L57.731044921875,20.440001000000002L57.111045921875,20.440001000000002L51.611043921875,12.2600002L51.491042921875,12.2600002L51.931043921875,24L50.571042921875005,24L51.071042921875005,9.720000299999999L51.471042921875,9.720000299999999L57.771041921875,19.08L57.891044921875,19.08L62.611045921875,10L64.05104492187499,10ZM67.171042921875,24L72.55104492187499,10L73.791041921875,10L79.171042921875,24L77.711043921875,24L75.231040921875,17.440001000000002L70.691043921875,17.440001000000002L68.63104292187501,24L67.171042921875,24ZM72.691043921875,11.04L70.831042921875,16.96L75.051040921875,16.96L72.811042921875,11.04L72.691043921875,11.04Z" fill="#373434" fill-opacity="1"/></g></g></svg>